<svg xmlns="http://www.w3.org/2000/svg" xmlns:xlink="http://www.w3.org/1999/xlink" width="500" zoomAndPan="magnify" viewBox="0 0 375 374.999991" height="500" preserveAspectRatio="xMidYMid meet" version="1.0"><defs><g/><clipPath id="d5a617c8c1"><path d="M 134 98 L 238 98 L 238 122.570312 L 134 122.570312 Z M 134 98 " clip-rule="nonzero"/></clipPath><clipPath id="94061df823"><path d="M 117.648438 80 L 257.148438 80 L 257.148438 122.570312 L 117.648438 122.570312 Z M 117.648438 80 " clip-rule="nonzero"/></clipPath><clipPath id="7112dcf65b"><path d="M 134 187.5 L 238 187.5 L 238 205 L 134 205 Z M 134 187.5 " clip-rule="nonzero"/></clipPath><clipPath id="5f56c2ae2d"><path d="M 117.648438 187.5 L 257.148438 187.5 L 257.148438 223 L 117.648438 223 Z M 117.648438 187.5 " clip-rule="nonzero"/></clipPath><clipPath id="092471ebe0"><path d="M 21.710938 62.742188 L 52 62.742188 L 52 312.492188 L 21.710938 312.492188 Z M 21.710938 62.742188 " clip-rule="nonzero"/></clipPath><clipPath id="693b67b48f"><path d="M 323 62.742188 L 353.210938 62.742188 L 353.210938 312.492188 L 323 312.492188 Z M 323 62.742188 " clip-rule="nonzero"/></clipPath></defs><g clip-path="url(#d5a617c8c1)"><path fill="#ffffff" d="M 237.746094 151.882812 C 237.746094 153.628906 237.664062 155.371094 237.5 157.109375 C 237.332031 158.84375 237.082031 160.570312 236.753906 162.28125 C 236.421875 163.992188 236.011719 165.683594 235.519531 167.355469 C 235.027344 169.027344 234.460938 170.667969 233.8125 172.28125 C 233.164062 173.894531 232.441406 175.46875 231.640625 177.007812 C 230.84375 178.546875 229.972656 180.042969 229.035156 181.496094 C 228.09375 182.945312 227.085938 184.347656 226.011719 185.695312 C 224.9375 187.042969 223.800781 188.335938 222.605469 189.570312 C 221.40625 190.804688 220.152344 191.976562 218.84375 193.082031 C 217.535156 194.191406 216.175781 195.230469 214.769531 196.199219 C 213.363281 197.167969 211.910156 198.066406 210.417969 198.886719 C 208.925781 199.710938 207.394531 200.457031 205.832031 201.125 C 204.265625 201.792969 202.675781 202.378906 201.054688 202.886719 C 199.433594 203.394531 197.792969 203.816406 196.132812 204.15625 C 194.472656 204.496094 192.796875 204.753906 191.113281 204.925781 C 189.429688 205.09375 187.738281 205.179688 186.046875 205.179688 C 184.351562 205.179688 182.664062 205.09375 180.976562 204.925781 C 179.292969 204.753906 177.621094 204.496094 175.960938 204.15625 C 174.296875 203.816406 172.65625 203.394531 171.039062 202.886719 C 169.417969 202.378906 167.824219 201.792969 166.261719 201.125 C 164.695312 200.457031 163.167969 199.710938 161.675781 198.886719 C 160.179688 198.066406 158.730469 197.167969 157.320312 196.199219 C 155.914062 195.230469 154.554688 194.191406 153.246094 193.082031 C 151.9375 191.976562 150.683594 190.804688 149.488281 189.570312 C 148.289062 188.335938 147.152344 187.042969 146.078125 185.695312 C 145.003906 184.347656 144 182.945312 143.058594 181.496094 C 142.117188 180.042969 141.246094 178.546875 140.449219 177.007812 C 139.652344 175.46875 138.929688 173.894531 138.28125 172.28125 C 137.632812 170.667969 137.0625 169.027344 136.570312 167.355469 C 136.078125 165.683594 135.667969 163.992188 135.335938 162.28125 C 135.007812 160.570312 134.757812 158.84375 134.59375 157.109375 C 134.425781 155.371094 134.34375 153.628906 134.34375 151.882812 C 134.34375 150.140625 134.425781 148.398438 134.59375 146.660156 C 134.757812 144.921875 135.007812 143.199219 135.335938 141.488281 C 135.667969 139.773438 136.078125 138.082031 136.570312 136.414062 C 137.0625 134.742188 137.632812 133.101562 138.28125 131.488281 C 138.929688 129.875 139.652344 128.300781 140.449219 126.761719 C 141.246094 125.222656 142.117188 123.726562 143.058594 122.273438 C 144 120.824219 145.003906 119.421875 146.078125 118.074219 C 147.152344 116.722656 148.289062 115.433594 149.488281 114.199219 C 150.683594 112.964844 151.9375 111.792969 153.246094 110.6875 C 154.554688 109.578125 155.914062 108.539062 157.320312 107.570312 C 158.730469 106.601562 160.179688 105.703125 161.675781 104.882812 C 163.167969 104.058594 164.695312 103.3125 166.261719 102.644531 C 167.824219 101.976562 169.417969 101.390625 171.039062 100.882812 C 172.65625 100.375 174.296875 99.953125 175.960938 99.613281 C 177.621094 99.273438 179.292969 99.015625 180.976562 98.84375 C 182.664062 98.671875 184.351562 98.589844 186.046875 98.589844 C 187.738281 98.589844 189.429688 98.671875 191.113281 98.84375 C 192.796875 99.015625 194.472656 99.273438 196.132812 99.613281 C 197.792969 99.953125 199.433594 100.375 201.054688 100.882812 C 202.675781 101.390625 204.265625 101.976562 205.832031 102.644531 C 207.394531 103.3125 208.925781 104.058594 210.417969 104.882812 C 211.910156 105.703125 213.363281 106.601562 214.769531 107.570312 C 216.175781 108.539062 217.535156 109.578125 218.84375 110.6875 C 220.152344 111.792969 221.40625 112.964844 222.605469 114.199219 C 223.800781 115.433594 224.9375 116.722656 226.011719 118.074219 C 227.085938 119.421875 228.09375 120.824219 229.035156 122.273438 C 229.972656 123.726562 230.84375 125.222656 231.640625 126.761719 C 232.441406 128.300781 233.164062 129.875 233.8125 131.488281 C 234.460938 133.101562 235.027344 134.742188 235.519531 136.414062 C 236.011719 138.082031 236.421875 139.773438 236.753906 141.488281 C 237.082031 143.199219 237.332031 144.921875 237.5 146.660156 C 237.664062 148.398438 237.746094 150.140625 237.746094 151.882812 Z M 237.746094 151.882812 " fill-opacity="1" fill-rule="nonzero"/></g><g clip-path="url(#94061df823)"><path fill="#ffffff" d="M 257.222656 151.882812 C 257.222656 112.328125 225.949219 80.058594 187.523438 80.058594 C 149.09375 80.058594 117.824219 112.328125 117.824219 151.882812 C 117.808594 154.609375 117.941406 157.328125 118.230469 160.039062 C 118.523438 162.75 118.964844 165.433594 119.558594 168.09375 C 120.152344 170.753906 120.894531 173.371094 121.78125 175.949219 C 122.671875 178.523438 123.707031 181.042969 124.882812 183.5 C 126.058594 185.960938 127.367188 188.347656 128.8125 190.65625 C 130.257812 192.964844 131.828125 195.1875 133.527344 197.320312 C 135.222656 199.453125 137.035156 201.484375 138.960938 203.410156 C 140.886719 205.335938 142.917969 207.148438 145.046875 208.84375 C 148.039062 211.238281 151.210938 213.367188 154.566406 215.222656 C 157.917969 217.078125 161.402344 218.640625 165.015625 219.90625 C 168.632812 221.171875 172.332031 222.125 176.109375 222.761719 C 179.886719 223.402344 183.691406 223.714844 187.523438 223.710938 C 225.949219 223.710938 257.222656 191.492188 257.222656 151.882812 Z M 186.046875 209.34375 C 155.242188 209.34375 130.183594 183.570312 130.183594 151.882812 C 130.183594 120.199219 155.242188 94.433594 186.046875 94.433594 C 218.410156 94.433594 241.90625 118.59375 241.90625 151.882812 C 241.90625 183.570312 216.847656 209.34375 186.046875 209.34375 Z M 186.046875 209.34375 " fill-opacity="1" fill-rule="nonzero"/></g><path fill="#ffffff" d="M 131.796875 245.671875 L 120.457031 274.226562 L 149.90625 252.53125 L 149.980469 252.53125 C 150.042969 252.480469 150.113281 252.4375 150.1875 252.40625 L 150.332031 252.332031 L 150.53125 252.261719 L 150.71875 252.207031 L 151.519531 252.207031 L 151.726562 252.261719 L 151.902344 252.3125 L 152.089844 252.40625 L 152.257812 252.5 L 152.425781 252.625 L 152.582031 252.75 L 152.726562 252.917969 L 152.808594 253.011719 C 152.808594 253.011719 152.808594 253.011719 152.808594 253.0625 L 152.921875 253.25 L 153.015625 253.425781 L 153.078125 253.605469 L 153.140625 253.832031 C 153.140625 253.832031 153.140625 253.832031 153.140625 253.882812 L 159.570312 289.910156 L 170.953125 261.367188 L 184.664062 226.695312 C 181.074219 226.558594 177.515625 226.15625 173.988281 225.488281 C 170.460938 224.816406 167.003906 223.886719 163.617188 222.695312 C 160.230469 221.503906 156.949219 220.066406 153.777344 218.378906 C 150.605469 216.695312 147.578125 214.78125 144.695312 212.640625 Z M 131.796875 245.671875 " fill-opacity="1" fill-rule="nonzero"/><path fill="#ffffff" d="M 230.976562 212.121094 C 228.078125 214.3125 225.03125 216.269531 221.835938 218 C 218.644531 219.730469 215.335938 221.210938 211.921875 222.441406 C 208.503906 223.667969 205.011719 224.636719 201.449219 225.339844 C 197.886719 226.042969 194.292969 226.472656 190.664062 226.632812 L 215.484375 288.828125 L 221.902344 252.800781 C 221.902344 252.800781 221.902344 252.800781 221.902344 252.75 C 221.921875 252.671875 221.949219 252.597656 221.976562 252.519531 C 221.992188 252.460938 222.007812 252.402344 222.027344 252.34375 L 222.121094 252.175781 C 222.152344 252.109375 222.191406 252.042969 222.238281 251.980469 L 222.238281 251.929688 L 222.308594 251.84375 C 222.359375 251.78125 222.414062 251.722656 222.476562 251.667969 L 222.609375 251.554688 L 222.789062 251.417969 L 222.945312 251.324219 L 223.152344 251.230469 L 223.308594 251.179688 L 223.535156 251.125 L 224.453125 251.125 L 224.660156 251.199219 L 224.804688 251.273438 L 225.023438 251.398438 L 225.085938 251.398438 L 254.652344 273.183594 L 243.207031 244.640625 Z M 230.976562 212.121094 " fill-opacity="1" fill-rule="nonzero"/><g clip-path="url(#7112dcf65b)"><path fill="#ffffff" d="M 237.746094 150.726562 C 237.746094 152.472656 237.664062 154.214844 237.5 155.949219 C 237.332031 157.6875 237.082031 159.414062 236.753906 161.125 C 236.421875 162.835938 236.011719 164.527344 235.519531 166.199219 C 235.027344 167.867188 234.460938 169.511719 233.8125 171.121094 C 233.164062 172.734375 232.441406 174.3125 231.640625 175.851562 C 230.84375 177.390625 229.972656 178.886719 229.035156 180.335938 C 228.09375 181.789062 227.085938 183.1875 226.011719 184.539062 C 224.9375 185.886719 223.800781 187.179688 222.605469 188.414062 C 221.40625 189.648438 220.152344 190.816406 218.84375 191.925781 C 217.535156 193.03125 216.175781 194.070312 214.769531 195.042969 C 213.363281 196.011719 211.910156 196.90625 210.417969 197.730469 C 208.925781 198.554688 207.394531 199.296875 205.832031 199.964844 C 204.265625 200.632812 202.675781 201.222656 201.054688 201.726562 C 199.433594 202.234375 197.792969 202.660156 196.132812 203 C 194.472656 203.339844 192.796875 203.59375 191.113281 203.765625 C 189.429688 203.9375 187.738281 204.023438 186.046875 204.023438 C 184.351562 204.023438 182.664062 203.9375 180.976562 203.765625 C 179.292969 203.59375 177.621094 203.339844 175.960938 203 C 174.296875 202.660156 172.65625 202.234375 171.039062 201.726562 C 169.417969 201.222656 167.824219 200.632812 166.261719 199.964844 C 164.695312 199.296875 163.167969 198.554688 161.675781 197.730469 C 160.179688 196.90625 158.730469 196.011719 157.320312 195.042969 C 155.914062 194.070312 154.554688 193.03125 153.246094 191.925781 C 151.9375 190.816406 150.683594 189.648438 149.488281 188.414062 C 148.289062 187.179688 147.152344 185.886719 146.078125 184.539062 C 145.003906 183.1875 144 181.789062 143.058594 180.335938 C 142.117188 178.886719 141.246094 177.390625 140.449219 175.851562 C 139.652344 174.3125 138.929688 172.734375 138.28125 171.121094 C 137.632812 169.511719 137.0625 167.867188 136.570312 166.199219 C 136.078125 164.527344 135.667969 162.835938 135.335938 161.125 C 135.007812 159.414062 134.757812 157.6875 134.59375 155.949219 C 134.425781 154.214844 134.34375 152.472656 134.34375 150.726562 C 134.34375 148.980469 134.425781 147.238281 134.59375 145.503906 C 134.757812 143.765625 135.007812 142.042969 135.335938 140.328125 C 135.667969 138.617188 136.078125 136.925781 136.570312 135.253906 C 137.0625 133.585938 137.632812 131.945312 138.28125 130.332031 C 138.929688 128.71875 139.652344 127.140625 140.449219 125.601562 C 141.246094 124.0625 142.117188 122.566406 143.058594 121.117188 C 144 119.664062 145.003906 118.265625 146.078125 116.914062 C 147.152344 115.566406 148.289062 114.273438 149.488281 113.039062 C 150.683594 111.804688 151.9375 110.636719 153.246094 109.527344 C 154.554688 108.421875 155.914062 107.382812 157.320312 106.414062 C 158.730469 105.441406 160.179688 104.546875 161.675781 103.722656 C 163.167969 102.902344 164.695312 102.15625 166.261719 101.488281 C 167.824219 100.820312 169.417969 100.230469 171.039062 99.726562 C 172.65625 99.21875 174.296875 98.796875 175.960938 98.453125 C 177.621094 98.113281 179.292969 97.859375 180.976562 97.6875 C 182.664062 97.515625 184.351562 97.429688 186.046875 97.429688 C 187.738281 97.429688 189.429688 97.515625 191.113281 97.6875 C 192.796875 97.859375 194.472656 98.113281 196.132812 98.453125 C 197.792969 98.796875 199.433594 99.21875 201.054688 99.726562 C 202.675781 100.230469 204.265625 100.820312 205.832031 101.488281 C 207.394531 102.15625 208.925781 102.902344 210.417969 103.722656 C 211.910156 104.546875 213.363281 105.441406 214.769531 106.414062 C 216.175781 107.382812 217.535156 108.421875 218.84375 109.527344 C 220.152344 110.636719 221.40625 111.804688 222.605469 113.039062 C 223.800781 114.273438 224.9375 115.566406 226.011719 116.914062 C 227.085938 118.265625 228.09375 119.664062 229.035156 121.117188 C 229.972656 122.566406 230.84375 124.0625 231.640625 125.601562 C 232.441406 127.140625 233.164062 128.71875 233.8125 130.332031 C 234.460938 131.945312 235.027344 133.585938 235.519531 135.253906 C 236.011719 136.925781 236.421875 138.617188 236.753906 140.328125 C 237.082031 142.042969 237.332031 143.765625 237.5 145.503906 C 237.664062 147.238281 237.746094 148.980469 237.746094 150.726562 Z M 237.746094 150.726562 " fill-opacity="1" fill-rule="nonzero"/></g><g clip-path="url(#5f56c2ae2d)"><path fill="#ffffff" d="M 257.222656 150.726562 C 257.222656 111.171875 225.949219 78.902344 187.523438 78.902344 C 149.09375 78.902344 117.824219 111.171875 117.824219 150.726562 C 117.808594 153.453125 117.941406 156.171875 118.230469 158.882812 C 118.523438 161.589844 118.964844 164.277344 119.558594 166.9375 C 120.152344 169.597656 120.894531 172.214844 121.78125 174.792969 C 122.671875 177.367188 123.707031 179.886719 124.882812 182.34375 C 126.058594 184.804688 127.367188 187.1875 128.8125 189.5 C 130.257812 191.808594 131.828125 194.03125 133.527344 196.164062 C 135.222656 198.296875 137.035156 200.324219 138.960938 202.25 C 140.886719 204.179688 142.917969 205.992188 145.046875 207.6875 C 148.039062 210.082031 151.210938 212.207031 154.566406 214.066406 C 157.917969 215.921875 161.402344 217.484375 165.015625 218.75 C 168.632812 220.015625 172.332031 220.964844 176.109375 221.605469 C 179.886719 222.242188 183.691406 222.558594 187.523438 222.550781 C 225.949219 222.550781 257.222656 190.335938 257.222656 150.726562 Z M 186.046875 208.1875 C 155.242188 208.1875 130.183594 182.414062 130.183594 150.726562 C 130.183594 119.039062 155.242188 93.277344 186.046875 93.277344 C 218.410156 93.277344 241.90625 117.4375 241.90625 150.726562 C 241.90625 182.414062 216.847656 208.1875 186.046875 208.1875 Z M 186.046875 208.1875 " fill-opacity="1" fill-rule="nonzero"/></g><g clip-path="url(#092471ebe0)"><path fill="#ffffff" d="M 50.398438 62.867188 L 25.214844 62.886719 C 25.171875 62.886719 25.128906 62.890625 25.085938 62.894531 C 23.140625 63.09375 22.027344 65.007812 21.746094 68.640625 L 21.742188 68.738281 C 21.707031 101.871094 21.703125 181.910156 21.730469 308.863281 C 21.71875 309.347656 21.84375 309.800781 22.109375 310.21875 C 22.753906 311.238281 24.300781 311.9375 26.742188 312.320312 C 26.808594 312.328125 26.875 312.332031 26.941406 312.332031 L 49.210938 312.371094 C 49.210938 312.371094 49.214844 312.371094 49.214844 312.371094 C 49.921875 312.371094 50.496094 311.796875 50.5 311.085938 C 50.5 310.375 49.925781 309.796875 49.214844 309.796875 L 27.046875 309.761719 L 27.042969 309.761719 C 25.484375 309.511719 24.570312 309.21875 24.304688 308.875 L 24.300781 308.875 L 24.300781 308.863281 C 24.273438 182.039062 24.277344 102.027344 24.3125 68.835938 L 24.308594 68.835938 C 24.472656 66.695312 24.804688 65.566406 25.304688 65.460938 L 25.300781 65.460938 L 50.402344 65.441406 C 51.109375 65.441406 51.683594 64.863281 51.683594 64.152344 C 51.683594 63.441406 51.109375 62.867188 50.398438 62.867188 Z M 50.398438 62.867188 " fill-opacity="1" fill-rule="nonzero"/></g><g clip-path="url(#693b67b48f)"><path fill="#ffffff" d="M 324.4375 62.867188 L 349.621094 62.886719 C 349.664062 62.886719 349.710938 62.890625 349.753906 62.894531 C 351.699219 63.09375 352.8125 65.007812 353.089844 68.640625 L 353.09375 68.738281 C 353.128906 101.871094 353.132812 181.910156 353.105469 308.863281 C 353.121094 309.347656 352.992188 309.800781 352.726562 310.21875 C 352.082031 311.238281 350.535156 311.9375 348.09375 312.320312 C 348.027344 312.328125 347.964844 312.332031 347.898438 312.332031 L 325.625 312.371094 C 324.914062 312.371094 324.339844 311.796875 324.339844 311.085938 C 324.335938 310.375 324.910156 309.796875 325.621094 309.796875 L 347.789062 309.761719 L 347.792969 309.761719 C 349.351562 309.511719 350.265625 309.21875 350.535156 308.875 L 350.539062 308.875 L 350.535156 308.863281 C 350.566406 182.039062 350.5625 102.027344 350.523438 68.835938 L 350.527344 68.835938 C 350.363281 66.695312 350.03125 65.566406 349.53125 65.460938 L 349.535156 65.460938 L 324.4375 65.441406 C 323.726562 65.441406 323.152344 64.863281 323.152344 64.152344 C 323.152344 63.441406 323.726562 62.867188 324.4375 62.867188 Z M 324.4375 62.867188 " fill-opacity="1" fill-rule="nonzero"/></g><g fill="#ffffff" fill-opacity="1"><g transform="translate(50.917895, 169.878163)"><g><path d="M 13.890625 -33.234375 C 15.492188 -33.234375 16.941406 -33.003906 18.234375 -32.546875 C 19.523438 -32.097656 20.640625 -31.457031 21.578125 -30.625 C 22.523438 -29.789062 23.269531 -28.769531 23.8125 -27.5625 C 24.351562 -26.363281 24.65625 -25.035156 24.71875 -23.578125 L 19.03125 -23.578125 C 18.96875 -25.003906 18.472656 -26.117188 17.546875 -26.921875 C 16.617188 -27.734375 15.398438 -28.140625 13.890625 -28.140625 C 12.304688 -28.140625 11.050781 -27.695312 10.125 -26.8125 C 9.195312 -25.9375 8.734375 -24.722656 8.734375 -23.171875 L 8.734375 -9.609375 C 8.734375 -8.054688 9.179688 -6.835938 10.078125 -5.953125 C 10.972656 -5.078125 12.242188 -4.640625 13.890625 -4.640625 C 15.398438 -4.640625 16.617188 -5.054688 17.546875 -5.890625 C 18.472656 -6.722656 18.96875 -7.84375 19.03125 -9.25 L 24.71875 -9.25 C 24.570312 -6.269531 23.535156 -3.90625 21.609375 -2.15625 C 19.679688 -0.414062 17.109375 0.453125 13.890625 0.453125 C 12.242188 0.453125 10.753906 0.21875 9.421875 -0.25 C 8.085938 -0.71875 6.945312 -1.390625 6 -2.265625 C 5.0625 -3.148438 4.332031 -4.210938 3.8125 -5.453125 C 3.300781 -6.703125 3.046875 -8.085938 3.046875 -9.609375 L 3.046875 -23.171875 C 3.046875 -24.691406 3.300781 -26.070312 3.8125 -27.3125 C 4.332031 -28.5625 5.0625 -29.625 6 -30.5 C 6.945312 -31.382812 8.085938 -32.0625 9.421875 -32.53125 C 10.753906 -33 12.242188 -33.234375 13.890625 -33.234375 Z M 13.890625 -33.234375 "/></g></g></g><g fill="#ffffff" fill-opacity="1"><g transform="translate(78.233196, 169.878163)"><g><path d="M 13.65625 0.453125 C 12.019531 0.453125 10.523438 0.21875 9.171875 -0.25 C 7.816406 -0.71875 6.671875 -1.375 5.734375 -2.21875 C 4.796875 -3.070312 4.066406 -4.101562 3.546875 -5.3125 C 3.035156 -6.53125 2.78125 -7.882812 2.78125 -9.375 L 2.78125 -15.703125 C 2.78125 -17.191406 3.035156 -18.539062 3.546875 -19.75 C 4.066406 -20.96875 4.796875 -22 5.734375 -22.84375 C 6.671875 -23.695312 7.816406 -24.351562 9.171875 -24.8125 C 10.523438 -25.269531 12.019531 -25.5 13.65625 -25.5 C 15.300781 -25.5 16.789062 -25.265625 18.125 -24.796875 C 19.457031 -24.328125 20.59375 -23.664062 21.53125 -22.8125 C 22.476562 -21.957031 23.207031 -20.921875 23.71875 -19.703125 C 24.238281 -18.492188 24.5 -17.144531 24.5 -15.65625 L 24.5 -11.109375 L 8.421875 -11.109375 L 8.421875 -9.46875 C 8.421875 -7.800781 8.882812 -6.492188 9.8125 -5.546875 C 10.738281 -4.609375 12.019531 -4.140625 13.65625 -4.140625 C 14.90625 -4.140625 15.960938 -4.328125 16.828125 -4.703125 C 17.691406 -5.085938 18.304688 -5.644531 18.671875 -6.375 L 24.265625 -6.375 C 23.992188 -5.34375 23.539062 -4.398438 22.90625 -3.546875 C 22.269531 -2.703125 21.488281 -1.984375 20.5625 -1.390625 C 19.632812 -0.796875 18.582031 -0.335938 17.40625 -0.015625 C 16.238281 0.296875 14.988281 0.453125 13.65625 0.453125 Z M 18.890625 -14.9375 L 18.890625 -15.65625 C 18.890625 -17.332031 18.429688 -18.628906 17.515625 -19.546875 C 16.609375 -20.472656 15.320312 -20.9375 13.65625 -20.9375 C 12.019531 -20.9375 10.738281 -20.472656 9.8125 -19.546875 C 8.882812 -18.628906 8.421875 -17.347656 8.421875 -15.703125 L 8.421875 -14.9375 Z M 18.890625 -14.9375 "/></g></g></g><g fill="#ffffff" fill-opacity="1"><g transform="translate(105.548498, 169.878163)"><g><path d="M 4.328125 -25.046875 L 9.703125 -25.046875 L 9.703125 -20.71875 L 10.109375 -20.71875 C 10.410156 -22.238281 11.164062 -23.414062 12.375 -24.25 C 13.59375 -25.082031 15.144531 -25.5 17.03125 -25.5 C 19.726562 -25.5 21.835938 -24.660156 23.359375 -22.984375 C 24.878906 -21.316406 25.640625 -19.015625 25.640625 -16.078125 L 25.640625 -14.25 L 19.671875 -14.25 L 19.671875 -15.578125 C 19.671875 -17.179688 19.226562 -18.429688 18.34375 -19.328125 C 17.46875 -20.222656 16.253906 -20.671875 14.703125 -20.671875 C 13.242188 -20.671875 12.097656 -20.210938 11.265625 -19.296875 C 10.429688 -18.390625 10.015625 -17.148438 10.015625 -15.578125 L 10.015625 0 L 4.328125 0 Z M 4.328125 -25.046875 "/></g></g></g><g fill="#ffffff" fill-opacity="1"><g transform="translate(132.863799, 169.878163)"><g><path d="M 2.046875 -25.046875 L 8.96875 -25.046875 L 8.96875 -32.78125 L 14.65625 -32.78125 L 14.65625 -25.046875 L 24.171875 -25.046875 L 24.171875 -19.890625 L 14.65625 -19.890625 L 14.65625 -7.734375 C 14.65625 -6.953125 14.890625 -6.320312 15.359375 -5.84375 C 15.835938 -5.375 16.5 -5.140625 17.34375 -5.140625 L 23.71875 -5.140625 L 23.71875 0 L 16.9375 0 C 14.476562 0 12.535156 -0.695312 11.109375 -2.09375 C 9.679688 -3.488281 8.96875 -5.367188 8.96875 -7.734375 L 8.96875 -19.890625 L 2.046875 -19.890625 Z M 2.046875 -25.046875 "/></g></g></g><g fill="#ffffff" fill-opacity="1"><g transform="translate(160.179101, 169.878163)"><g><path d="M 3.78125 -5.1875 L 12.75 -5.1875 L 12.75 -19.890625 L 4.921875 -19.890625 L 4.921875 -25.046875 L 18.21875 -25.046875 L 18.21875 -5.1875 L 25.453125 -5.1875 L 25.453125 0 L 3.78125 0 Z M 11.109375 -31.828125 C 11.109375 -32.703125 11.40625 -33.421875 12 -33.984375 C 12.59375 -34.546875 13.375 -34.828125 14.34375 -34.828125 L 15.53125 -34.828125 C 16.5 -34.828125 17.28125 -34.546875 17.875 -33.984375 C 18.46875 -33.421875 18.765625 -32.703125 18.765625 -31.828125 C 18.765625 -30.910156 18.457031 -30.179688 17.84375 -29.640625 C 17.238281 -29.097656 16.453125 -28.828125 15.484375 -28.828125 L 14.34375 -28.828125 C 13.375 -28.828125 12.59375 -29.097656 12 -29.640625 C 11.40625 -30.179688 11.109375 -30.910156 11.109375 -31.828125 Z M 11.109375 -31.828125 "/></g></g></g><g fill="#ffffff" fill-opacity="1"><g transform="translate(187.494616, 169.878163)"><g><path d="M 2.734375 -18.796875 L 2.734375 -22.53125 L 10.015625 -22.53125 L 10.015625 -26.859375 C 10.015625 -28.867188 10.632812 -30.429688 11.875 -31.546875 C 13.125 -32.671875 14.84375 -33.234375 17.03125 -33.234375 L 24.359375 -33.234375 L 24.359375 -29.5 L 17.03125 -29.5 C 15.082031 -29.5 14.109375 -28.617188 14.109375 -26.859375 L 14.109375 -22.53125 L 24.359375 -22.53125 L 24.359375 -18.796875 L 14.109375 -18.796875 L 14.109375 0 L 10.015625 0 L 10.015625 -18.796875 Z M 2.734375 -18.796875 "/></g></g></g><g fill="#ffffff" fill-opacity="1"><g transform="translate(214.809918, 169.878163)"><g><path d="M 13.65625 0.453125 C 10.53125 0.453125 8.078125 -0.394531 6.296875 -2.09375 C 4.523438 -3.789062 3.640625 -6.128906 3.640625 -9.109375 L 3.640625 -15.9375 C 3.640625 -18.90625 4.523438 -21.238281 6.296875 -22.9375 C 8.078125 -24.644531 10.53125 -25.5 13.65625 -25.5 C 16.78125 -25.5 19.226562 -24.644531 21 -22.9375 C 22.78125 -21.238281 23.671875 -18.90625 23.671875 -15.9375 L 23.671875 -11.34375 L 7.734375 -11.34375 L 7.734375 -9.328125 C 7.734375 -7.421875 8.253906 -5.921875 9.296875 -4.828125 C 10.347656 -3.734375 11.800781 -3.1875 13.65625 -3.1875 C 15.019531 -3.1875 16.203125 -3.398438 17.203125 -3.828125 C 18.210938 -4.253906 18.957031 -4.875 19.4375 -5.6875 L 23.546875 -5.6875 C 23.023438 -3.78125 21.875 -2.28125 20.09375 -1.1875 C 18.320312 -0.09375 16.175781 0.453125 13.65625 0.453125 Z M 19.578125 -14.75 L 19.578125 -15.9375 C 19.578125 -17.820312 19.0625 -19.28125 18.03125 -20.3125 C 17 -21.34375 15.539062 -21.859375 13.65625 -21.859375 C 11.78125 -21.859375 10.320312 -21.34375 9.28125 -20.3125 C 8.25 -19.28125 7.734375 -17.820312 7.734375 -15.9375 L 7.734375 -14.75 Z M 19.578125 -14.75 "/></g></g></g><g fill="#ffffff" fill-opacity="1"><g transform="translate(242.125219, 169.878163)"><g><path d="M 2.28125 -25.046875 L 6.609375 -25.046875 L 12.703125 -7.328125 C 12.941406 -6.628906 13.125 -6.015625 13.25 -5.484375 C 13.375 -4.953125 13.460938 -4.503906 13.515625 -4.140625 C 13.578125 -3.679688 13.609375 -3.285156 13.609375 -2.953125 L 14.03125 -2.953125 C 14 -3.285156 14.007812 -3.679688 14.0625 -4.140625 C 14.125 -4.503906 14.203125 -4.953125 14.296875 -5.484375 C 14.390625 -6.015625 14.554688 -6.628906 14.796875 -7.328125 L 20.578125 -25.046875 L 25.046875 -25.046875 L 16.078125 0 L 11.421875 0 Z M 2.28125 -25.046875 "/></g></g></g><g fill="#ffffff" fill-opacity="1"><g transform="translate(269.440521, 169.878163)"><g><path d="M 13.65625 0.453125 C 10.53125 0.453125 8.078125 -0.394531 6.296875 -2.09375 C 4.523438 -3.789062 3.640625 -6.128906 3.640625 -9.109375 L 3.640625 -15.9375 C 3.640625 -18.90625 4.523438 -21.238281 6.296875 -22.9375 C 8.078125 -24.644531 10.53125 -25.5 13.65625 -25.5 C 16.78125 -25.5 19.226562 -24.644531 21 -22.9375 C 22.78125 -21.238281 23.671875 -18.90625 23.671875 -15.9375 L 23.671875 -11.34375 L 7.734375 -11.34375 L 7.734375 -9.328125 C 7.734375 -7.421875 8.253906 -5.921875 9.296875 -4.828125 C 10.347656 -3.734375 11.800781 -3.1875 13.65625 -3.1875 C 15.019531 -3.1875 16.203125 -3.398438 17.203125 -3.828125 C 18.210938 -4.253906 18.957031 -4.875 19.4375 -5.6875 L 23.546875 -5.6875 C 23.023438 -3.78125 21.875 -2.28125 20.09375 -1.1875 C 18.320312 -0.09375 16.175781 0.453125 13.65625 0.453125 Z M 19.578125 -14.75 L 19.578125 -15.9375 C 19.578125 -17.820312 19.0625 -19.28125 18.03125 -20.3125 C 17 -21.34375 15.539062 -21.859375 13.65625 -21.859375 C 11.78125 -21.859375 10.320312 -21.34375 9.28125 -20.3125 C 8.25 -19.28125 7.734375 -17.820312 7.734375 -15.9375 L 7.734375 -14.75 Z M 19.578125 -14.75 "/></g></g></g><g fill="#ffffff" fill-opacity="1"><g transform="translate(296.755822, 169.878163)"><g><path d="M 5.09375 -25.046875 L 8.96875 -25.046875 L 8.96875 -20.71875 L 9.328125 -20.71875 C 9.722656 -22.207031 10.539062 -23.375 11.78125 -24.21875 C 13.03125 -25.070312 14.566406 -25.5 16.390625 -25.5 C 19.035156 -25.5 21.109375 -24.671875 22.609375 -23.015625 C 24.109375 -21.359375 24.859375 -19.085938 24.859375 -16.203125 L 24.859375 -14.796875 L 20.765625 -14.796875 L 20.765625 -15.703125 C 20.765625 -17.679688 20.269531 -19.207031 19.28125 -20.28125 C 18.289062 -21.363281 16.890625 -21.90625 15.078125 -21.90625 C 13.285156 -21.90625 11.859375 -21.347656 10.796875 -20.234375 C 9.734375 -19.128906 9.203125 -17.617188 9.203125 -15.703125 L 9.203125 0 L 5.09375 0 Z M 5.09375 -25.046875 "/></g></g></g></svg>